<svg id="Capa_1" data-name="Capa 1" xmlns="http://www.w3.org/2000/svg" viewBox="0 0 200 200">
  <rect width="200" height="200" fill="none"/>
  <g>
    <circle cx="100" cy="99.811" r="94.389" fill="#d7332b"/>
    <circle cx="100" cy="99.811" r="83.579" fill="none" stroke="#020202" stroke-miterlimit="10" stroke-width="5.77"/>
    <path d="M150.014,72.774h0A10.229,10.229,0,0,0,136.485,77.9l-4.7,10.437L129.226,98.8a3.283,3.283,0,0,1-3,1.935,28.057,28.057,0,0,0-27.848,25.319,1.971,1.971,0,0,1-1.959,1.781c-.064,0-.128,0-.193-.009a1.972,1.972,0,0,1-1.772-2.153A32,32,0,0,1,125.689,96.8l1.472-6.045V52.2a7.8,7.8,0,0,0-7.8-7.8h0a7.8,7.8,0,0,0-7.8,7.8V93.5a1.717,1.717,0,0,1-3.433,0V48.253a7.8,7.8,0,0,0-7.8-7.8h0a7.8,7.8,0,0,0-7.8,7.8V93.5A1.716,1.716,0,0,1,90.8,95.22h0A1.716,1.716,0,0,1,89.086,93.5V52.2a7.8,7.8,0,0,0-7.8-7.8h0a7.8,7.8,0,0,0-7.8,7.8V93.5a1.717,1.717,0,0,1-3.433,0V61.392a7.8,7.8,0,0,0-7.8-7.8h0a7.8,7.8,0,0,0-7.8,7.8v71.889a25.89,25.89,0,0,0,25.89,25.89h30.459a25.89,25.89,0,0,0,25.89-25.89L155.14,86.3A10.23,10.23,0,0,0,150.014,72.774Z" fill="#fff"/>
    <g>
      <path d="M126.74,135.387c-.926-.287-1.854-.566-2.8-.936a9.5,9.5,0,0,0,5.722-3.6q.153-.2.3-.4a8.146,8.146,0,0,0,.9-7.915,10.4,10.4,0,0,0-.853-1.61c-1.374-2.152-3.267-3.121-5.829-3.721a7.382,7.382,0,0,0-.914-.149,22.474,22.474,0,0,0-2.679-.146H102.945V123.2l13.591-.037c.488,0,.978.008,1.465.042,3.4.241,3.859,2.276,3.1,5.157a1.707,1.707,0,0,1-1.516,1.117,13.623,13.623,0,0,1-1.377.151c0,3.417.008,3.375-.014,5.13-.009.614.111.838.781.84,1.594,0,2.163.524,2.441,2.077a28.571,28.571,0,0,1,.134,4.6c.034,1.953.029,3.906.041,5.859h8.8c.009-2.963.051-5.927.015-8.89C130.388,137.681,128.732,136.006,126.74,135.387Z" fill="#020202"/>
      <path d="M116.779,130.707c.01-.922-.138-1.128-.778-1.117-1.01.018-2.023-.031-3.032.015-.6.027-.806-.178-.791-.766.029-1.15,0-2.3.017-3.452.009-.49-.085-.774-.677-.767-2.857.034-5.715.036-8.573.049v20.115a3.353,3.353,0,0,0,3.353,3.352h9.848c0-1.08.024-3.24.024-3.24l.015-.965s-.433.022-.977.027c-2.754.022-3.007-.119-3.015-2.819,0-1.569.053-3.14-.022-4.705-.043-.911.289-1.133,1.13-1.066.9.071,1.813-.011,2.718.025.653.027.754-.17.772-1.073C116.819,132.912,116.766,131.9,116.779,130.707Z" fill="#d7332b"/>
    </g>
    <line x1="42.716" y1="159.853" x2="157.284" y2="39.768" fill="none" stroke="#020202" stroke-linecap="round" stroke-linejoin="round" stroke-width="5.77"/>
  </g>
</svg>
